G04*
G04 #@! TF.GenerationSoftware,Altium Limited,Altium Designer,19.1.5 (86)*
G04*
G04 Layer_Color=32768*
%FSLAX25Y25*%
%MOIN*%
G70*
G01*
G75*
%ADD25C,0.00394*%
%ADD26C,0.00197*%
D25*
X151500Y115630D02*
Y119370D01*
X149630Y117500D02*
X153370D01*
X151500Y135130D02*
Y138870D01*
X149630Y137000D02*
X153370D01*
X147902Y128000D02*
X151839D01*
X149870Y126031D02*
Y129969D01*
X131500Y125630D02*
Y129370D01*
X129630Y127500D02*
X133370D01*
X131500Y139130D02*
Y142870D01*
X129630Y141000D02*
X133370D01*
X167500Y140630D02*
Y144370D01*
X165630Y142500D02*
X169370D01*
D26*
X148547Y123602D02*
X154453D01*
X148547Y111398D02*
X154453D01*
X148547D02*
Y123602D01*
X154453Y111398D02*
Y123602D01*
X148547Y143102D02*
X154453D01*
X148547Y130898D02*
X154453D01*
X148547D02*
Y143102D01*
X154453Y130898D02*
Y143102D01*
X135303Y107331D02*
Y148669D01*
X164437Y107331D02*
Y148669D01*
X135303D02*
X164437D01*
X135303Y107331D02*
X164437D01*
X128547Y133602D02*
X134453D01*
X128547Y121398D02*
X134453D01*
Y133602D01*
X128547Y121398D02*
Y133602D01*
Y147102D02*
X134453D01*
X128547Y134898D02*
X134453D01*
Y147102D01*
X128547Y134898D02*
Y147102D01*
X164547Y148602D02*
X170453D01*
X164547Y136398D02*
X170453D01*
Y148602D01*
X164547Y136398D02*
Y148602D01*
X195024Y104429D02*
Y154823D01*
X171402D02*
X195024D01*
X171402Y104429D02*
Y154823D01*
Y104429D02*
X195024D01*
X103976Y104429D02*
Y154823D01*
Y104429D02*
X127598D01*
Y154823D01*
X103976D02*
X127598D01*
M02*
