G04*
G04 #@! TF.GenerationSoftware,Altium Limited,Altium Designer,19.1.5 (86)*
G04*
G04 Layer_Physical_Order=2*
G04 Layer_Color=16711680*
%FSLAX25Y25*%
%MOIN*%
G70*
G01*
G75*
%ADD15R,0.03740X0.03937*%
%ADD21C,0.01000*%
%ADD22O,0.07500X0.05500*%
%ADD23R,0.07500X0.05500*%
%ADD24C,0.05000*%
G36*
X197971Y101529D02*
X101529D01*
Y157471D01*
X197971D01*
Y101529D01*
D02*
G37*
%LPC*%
G36*
X116000Y149156D02*
X115500D01*
Y145874D01*
X119717D01*
X119653Y146353D01*
X119276Y147265D01*
X118675Y148048D01*
X117891Y148650D01*
X116979Y149028D01*
X116000Y149156D01*
D02*
G37*
G36*
X114500D02*
X114000D01*
X113021Y149028D01*
X112109Y148650D01*
X111326Y148048D01*
X110724Y147265D01*
X110346Y146353D01*
X110284Y145874D01*
X114500D01*
Y149156D01*
D02*
G37*
G36*
X146000Y144030D02*
X145086Y143910D01*
X144235Y143557D01*
X143504Y142996D01*
X142943Y142265D01*
X142590Y141414D01*
X142470Y140500D01*
X142590Y139586D01*
X142943Y138735D01*
X143504Y138004D01*
X144235Y137443D01*
X145086Y137090D01*
X146000Y136970D01*
X146914Y137090D01*
X147765Y137443D01*
X148130Y137723D01*
X148630Y137476D01*
X148630Y137181D01*
Y136819D01*
X148630Y136681D01*
Y134350D01*
X151500D01*
X154370D01*
Y136681D01*
X154370Y136819D01*
Y137181D01*
X154370Y137319D01*
Y143118D01*
X148630D01*
X148630Y143118D01*
Y143118D01*
X148630Y143118D01*
X148180Y143239D01*
X147765Y143557D01*
X146914Y143910D01*
X146000Y144030D01*
D02*
G37*
G36*
X119717Y144874D02*
X115000D01*
X110284D01*
X110346Y144395D01*
X110724Y143483D01*
X111326Y142700D01*
X112109Y142098D01*
X113021Y141720D01*
X113259Y141689D01*
Y141185D01*
X113021Y141154D01*
X112109Y140776D01*
X111326Y140174D01*
X110724Y139391D01*
X110346Y138479D01*
X110218Y137500D01*
X110346Y136521D01*
X110496Y136159D01*
X106919Y132581D01*
X106587Y132085D01*
X106471Y131500D01*
Y111500D01*
X106587Y110915D01*
X106919Y110419D01*
X110919Y106419D01*
X111415Y106087D01*
X112000Y105971D01*
X127500D01*
X128085Y106087D01*
X128581Y106419D01*
X130351Y108188D01*
X130586Y108090D01*
X131500Y107970D01*
X132414Y108090D01*
X133265Y108443D01*
X133996Y109004D01*
X134557Y109735D01*
X134910Y110586D01*
X135030Y111500D01*
X134910Y112414D01*
X134557Y113265D01*
X133996Y113996D01*
X133265Y114557D01*
X132414Y114910D01*
X131500Y115030D01*
X130586Y114910D01*
X129735Y114557D01*
X129004Y113996D01*
X128443Y113265D01*
X128090Y112414D01*
X127970Y111500D01*
X128090Y110586D01*
X128188Y110351D01*
X126866Y109029D01*
X112634D01*
X111997Y109666D01*
X112188Y110128D01*
X119750D01*
Y117628D01*
X117088D01*
X116979Y118098D01*
X117891Y118476D01*
X118675Y119077D01*
X119276Y119861D01*
X119653Y120773D01*
X119782Y121752D01*
X119653Y122731D01*
X119276Y123643D01*
X118675Y124426D01*
X117891Y125028D01*
X116979Y125405D01*
X116741Y125437D01*
Y125941D01*
X116979Y125972D01*
X117891Y126350D01*
X118675Y126951D01*
X119276Y127735D01*
X119606Y128534D01*
X165097D01*
X165504Y128004D01*
X166235Y127443D01*
X167086Y127090D01*
X168000Y126970D01*
X168914Y127090D01*
X169765Y127443D01*
X170496Y128004D01*
X171057Y128735D01*
X171410Y129586D01*
X171530Y130500D01*
X171410Y131414D01*
X171057Y132265D01*
X170496Y132996D01*
X169765Y133557D01*
X168914Y133910D01*
X168000Y134030D01*
X167086Y133910D01*
X166235Y133557D01*
X165504Y132996D01*
X164943Y132265D01*
X164664Y131592D01*
X154370D01*
Y133350D01*
X151500D01*
X148630D01*
Y131592D01*
X119218D01*
X118675Y132300D01*
X117891Y132902D01*
X116979Y133280D01*
X116741Y133311D01*
Y133815D01*
X116979Y133846D01*
X117891Y134224D01*
X118675Y134826D01*
X119276Y135609D01*
X119653Y136521D01*
X119782Y137500D01*
X119653Y138479D01*
X119276Y139391D01*
X118675Y140174D01*
X117891Y140776D01*
X116979Y141154D01*
X116741Y141185D01*
Y141689D01*
X116979Y141720D01*
X117891Y142098D01*
X118675Y142700D01*
X119276Y143483D01*
X119653Y144395D01*
X119717Y144874D01*
D02*
G37*
G36*
X188750Y149124D02*
X179250D01*
Y141624D01*
X181912D01*
X182021Y141154D01*
X181109Y140776D01*
X180325Y140174D01*
X179724Y139391D01*
X179347Y138479D01*
X179218Y137500D01*
X179347Y136521D01*
X179716Y135629D01*
X168545Y124458D01*
X168000Y124530D01*
X167086Y124410D01*
X166235Y124057D01*
X165504Y123496D01*
X164943Y122765D01*
X164590Y121914D01*
X164470Y121000D01*
X164590Y120086D01*
X164943Y119235D01*
X165504Y118504D01*
X166103Y118044D01*
X166145Y117888D01*
Y117612D01*
X166103Y117456D01*
X165504Y116996D01*
X164943Y116265D01*
X164590Y115414D01*
X164470Y114500D01*
X164590Y113586D01*
X164943Y112735D01*
X165504Y112004D01*
X166235Y111443D01*
X167086Y111090D01*
X168000Y110970D01*
X168914Y111090D01*
X169765Y111443D01*
X170496Y112004D01*
X171057Y112735D01*
X171410Y113586D01*
X171530Y114500D01*
X171410Y115414D01*
X171294Y115694D01*
X179141Y123541D01*
X179565Y123258D01*
X179347Y122731D01*
X179218Y121752D01*
X179347Y120773D01*
X179724Y119861D01*
X180325Y119077D01*
X181109Y118476D01*
X182021Y118098D01*
X182259Y118067D01*
Y117563D01*
X182021Y117531D01*
X181109Y117154D01*
X180325Y116552D01*
X179724Y115769D01*
X179347Y114857D01*
X179218Y113878D01*
X179347Y112899D01*
X179724Y111987D01*
X180325Y111203D01*
X181109Y110602D01*
X182021Y110224D01*
X183000Y110096D01*
X185000D01*
X185979Y110224D01*
X186891Y110602D01*
X187674Y111203D01*
X188276Y111987D01*
X188654Y112899D01*
X188782Y113878D01*
X188654Y114857D01*
X188276Y115769D01*
X187674Y116552D01*
X186891Y117154D01*
X185979Y117531D01*
X185741Y117563D01*
Y118067D01*
X185979Y118098D01*
X186891Y118476D01*
X187674Y119077D01*
X188276Y119861D01*
X188654Y120773D01*
X188782Y121752D01*
X188654Y122731D01*
X188276Y123643D01*
X187674Y124426D01*
X186891Y125028D01*
X185979Y125405D01*
X185741Y125437D01*
Y125941D01*
X185979Y125972D01*
X186891Y126350D01*
X187674Y126952D01*
X188276Y127735D01*
X188654Y128647D01*
X188782Y129626D01*
X188654Y130605D01*
X188276Y131517D01*
X187674Y132300D01*
X186891Y132902D01*
X185979Y133280D01*
X185741Y133311D01*
Y133815D01*
X185979Y133846D01*
X186891Y134224D01*
X187674Y134826D01*
X188276Y135609D01*
X188654Y136521D01*
X188782Y137500D01*
X188654Y138479D01*
X188276Y139391D01*
X187674Y140174D01*
X186891Y140776D01*
X185979Y141154D01*
X186088Y141624D01*
X188750D01*
Y149124D01*
D02*
G37*
G36*
X146000Y124030D02*
X145086Y123910D01*
X144235Y123557D01*
X143504Y122996D01*
X142943Y122265D01*
X142590Y121414D01*
X142470Y120500D01*
X142590Y119586D01*
X142943Y118735D01*
X143504Y118004D01*
X144235Y117443D01*
X145086Y117090D01*
X146000Y116970D01*
X146914Y117090D01*
X147765Y117443D01*
X148130Y117723D01*
X148630Y117681D01*
Y117319D01*
X148630Y117181D01*
Y114850D01*
X151500D01*
Y114350D01*
D01*
Y114850D01*
X154370D01*
Y117181D01*
X154370Y117319D01*
Y117681D01*
X154370Y117819D01*
Y123618D01*
X148630D01*
Y123524D01*
X148130Y123277D01*
X147765Y123557D01*
X146914Y123910D01*
X146000Y124030D01*
D02*
G37*
G36*
X154370Y113850D02*
X152000D01*
Y111382D01*
X154370D01*
Y113850D01*
D02*
G37*
G36*
X151000D02*
X148630D01*
Y111382D01*
X151000D01*
Y113850D01*
D02*
G37*
%LPD*%
D15*
X151500Y120650D02*
D03*
Y114350D02*
D03*
Y140150D02*
D03*
Y133850D02*
D03*
D21*
X115000Y129626D02*
X115437Y130063D01*
X167563D01*
X168000Y130500D01*
X127500Y107500D02*
X131500Y111500D01*
X112000Y107500D02*
X127500D01*
X108000Y111500D02*
X112000Y107500D01*
X108000Y111500D02*
Y131500D01*
X114000Y137500D01*
X168000Y114500D02*
Y114563D01*
X183063Y129626D01*
X184000D01*
X168000Y121000D02*
Y121750D01*
X183750Y137500D01*
X184000D01*
X114000D02*
X115000D01*
X146000Y120500D02*
X151350D01*
X151500Y120650D01*
X146000Y140500D02*
X151150D01*
X151500Y140150D01*
D22*
X184000Y129626D02*
D03*
Y137500D02*
D03*
Y121752D02*
D03*
Y113878D02*
D03*
X115000Y129626D02*
D03*
Y121752D02*
D03*
Y137500D02*
D03*
Y145374D02*
D03*
D23*
X184000Y145374D02*
D03*
X115000Y113878D02*
D03*
D24*
X131500Y111500D02*
D03*
X168000Y114500D02*
D03*
Y121000D02*
D03*
Y130500D02*
D03*
X146000Y120500D02*
D03*
Y140500D02*
D03*
M02*
