G04*
G04 #@! TF.GenerationSoftware,Altium Limited,Altium Designer,19.1.5 (86)*
G04*
G04 Layer_Color=8388736*
%FSLAX25Y25*%
%MOIN*%
G70*
G01*
G75*
%ADD16O,0.06902X0.03162*%
%ADD17R,0.04540X0.04737*%
%ADD18O,0.08300X0.06300*%
%ADD19R,0.08300X0.06300*%
%ADD20C,0.05800*%
D16*
X139240Y145500D02*
D03*
Y140500D02*
D03*
Y135500D02*
D03*
Y130500D02*
D03*
Y125500D02*
D03*
Y120500D02*
D03*
Y115500D02*
D03*
Y110500D02*
D03*
X160500Y145500D02*
D03*
Y140500D02*
D03*
Y135500D02*
D03*
Y130500D02*
D03*
Y125500D02*
D03*
Y120500D02*
D03*
Y115500D02*
D03*
Y110500D02*
D03*
D17*
X131500Y130650D02*
D03*
Y124350D02*
D03*
Y144150D02*
D03*
Y137850D02*
D03*
X167500Y145650D02*
D03*
Y139350D02*
D03*
D18*
X184000Y129626D02*
D03*
Y137500D02*
D03*
Y121752D02*
D03*
Y113878D02*
D03*
X115000Y129626D02*
D03*
Y121752D02*
D03*
Y137500D02*
D03*
Y145374D02*
D03*
D19*
X184000Y145374D02*
D03*
X115000Y113878D02*
D03*
D20*
X131500Y111500D02*
D03*
X168000Y114500D02*
D03*
Y121000D02*
D03*
Y130500D02*
D03*
X146000Y120500D02*
D03*
Y140500D02*
D03*
M02*
